# xmcd
#
# Track frame offsets:
#	150
#	16344
#	30751
#	43356
#	55636
#	76276
#	92791
#	110237
#	126417
#	143324
#	155854
#	168629
#	183485
#	198717
#	215217
#	230868
#	247852
#	265237
#
# Disc length: 3709 seconds
#
# Revision: 0
# Processed by: cddbd v1.5.2PL0 Copyright (c) Steve Scherf et al.
# Submitted via: EasyCDDAExtractor 11.0.2.1
#
DISCID=070e7b12
DTITLE=Various Artist - The Best Of Country Music Channel [cd2]
DYEAR=2007
DGENRE=Country
TTITLE0=Trace Adkins - Swing
TTITLE1=Shedaisy - I'm Taking The Wheel
TTITLE2=Gretchen Wilson - California Girls
TTITLE3=Billy Currington - Why, Why, Why
TTITLE4=Sara Evans - You'll Always Be My Baby
TTITLE5=Dierks Bentley - Settle For A Slowdown
TTITLE6=Lonestar - Mountains
TTITLE7=Steve Holy - Brand New Girlfriend
TTITLE8=Miranda Lambert - New Strings
TTITLE9=Joe Nichols - Size Matters (Someday)
TTITLE10=Sugarland - Down In Mississippi (Up To No Good)
TTITLE11=Montgomery Gentry - Some People Change
TTITLE12=Julie Roberts - Men and Mascara
TTITLE13=Gary Allan - Life Ain't Always Beautiful
TTITLE14=Alan Jackson - Like Red On A Rose
TTITLE15=Josh Turner - Would You Go With Me
TTITLE16=Taylor Swift - Tim Mcgraw
TTITLE17=Corb Lund - Hair In My Eyes Like A Highlan Steer
EXTD=
EXTT0=
EXTT1=
EXTT2=
EXTT3=
EXTT4=
EXTT5=
EXTT6=
EXTT7=
EXTT8=
EXTT9=
EXTT10=
EXTT11=
EXTT12=
EXTT13=
EXTT14=
EXTT15=
EXTT16=
EXTT17=
PLAYORDER=
